<svg xmlns="http://www.w3.org/2000/svg" viewBox="0 0 512 512" width="512" height="512">
  <defs>
    <linearGradient id="bgGrad" x1="0%" y1="0%" x2="100%" y2="100%">
      <stop offset="0%" stop-color="#7eb8f7" />
      <stop offset="100%" stop-color="#3d3fa5" />
    </linearGradient>
    <filter id="iconShadow" x="-10%" y="-10%" width="120%" height="130%">
      <feDropShadow dx="0" dy="4" stdDeviation="6" flood-color="#000" flood-opacity="0.25" />
    </filter>
  </defs>

  <rect width="512" height="512" rx="108" ry="108" fill="url(#bgGrad)" />
  <ellipse cx="160" cy="140" rx="180" ry="160" fill="white" fill-opacity="0.07" />

  <g filter="url(#iconShadow)">
    <path
      d="M 101 295 A 155 155 0 1 1 411 295"
      fill="none"
      stroke="white"
      stroke-width="22"
      stroke-linecap="round"
      opacity="0.95"
    />

    <line x1="113" y1="230" x2="136" y2="247" stroke="white" stroke-width="10" stroke-linecap="round" opacity="0.7" />
    <line x1="139" y1="158" x2="156" y2="178" stroke="white" stroke-width="10" stroke-linecap="round" opacity="0.7" />
    <line x1="256" y1="116" x2="256" y2="140" stroke="white" stroke-width="10" stroke-linecap="round" opacity="0.7" />
    <line x1="373" y1="158" x2="356" y2="178" stroke="white" stroke-width="10" stroke-linecap="round" opacity="0.7" />
    <line x1="399" y1="230" x2="376" y2="247" stroke="white" stroke-width="10" stroke-linecap="round" opacity="0.7" />

    <line
      x1="256"
      y1="295"
      x2="360"
      y2="172"
      stroke="white"
      stroke-width="14"
      stroke-linecap="round"
      opacity="0.98"
    />

    <circle cx="256" cy="295" r="20" fill="white" opacity="0.95" />
    <circle cx="256" cy="295" r="9" fill="url(#bgGrad)" />

    <polygon
      points="350,148 390,148 370,114"
      fill="#FFD93D"
      stroke="white"
      stroke-width="4"
      stroke-linejoin="round"
    />
    <path d="M 374 118 L 367 133 L 372 133 L 365 146 L 378 128 L 372 128 Z" fill="white" />

    <text
      x="256"
      y="358"
      font-family="Arial, sans-serif"
      font-size="38"
      font-weight="900"
      fill="white"
      text-anchor="middle"
      letter-spacing="-1"
      opacity="0.95"
    >
      km/h
    </text>
  </g>
</svg>
